<?xml version="1.0" encoding="UTF-8"?>
<svg viewBox="0 0 586.95459 755.71069" xmlns="http://www.w3.org/2000/svg" xmlns:xlink="http://www.w3.org/1999/xlink">
 <defs>
  <filter id="r">
   <feGaussianBlur stdDeviation="6.82551"/>
  </filter>
  <filter id="i">
   <feGaussianBlur stdDeviation="5.54832"/>
  </filter>
  <filter id="h">
   <feGaussianBlur stdDeviation=".27037"/>
  </filter>
  <linearGradient id="q" x1="1248.2" x2="1199" y1="1296.9" y2="1292.4" gradientUnits="userSpaceOnUse">
   <stop offset="0"/>
   <stop stop-color="#fff" offset=".49921"/>
   <stop stop-color="#f9f9f9" stop-opacity="0" offset="1"/>
  </linearGradient>
  <linearGradient id="f">
   <stop stop-color="#f60" offset="0"/>
   <stop stop-color="#f60" stop-opacity="0" offset="1"/>
  </linearGradient>
  <linearGradient id="g">
   <stop stop-color="#ff0" offset="0"/>
   <stop stop-color="#ff0" stop-opacity="0" offset="1"/>
  </linearGradient>
  <linearGradient id="a">
   <stop stop-color="#fff" offset="0"/>
   <stop stop-color="#fff" stop-opacity="0" offset="1"/>
  </linearGradient>
  <linearGradient id="e" x1="467.76" x2="472.83" y1="416.01" y2="357.7" gradientTransform="matrix(-1.1853 0 0 -1.1092 815.85 899.33)" gradientUnits="userSpaceOnUse">
   <stop stop-color="#fc0" offset="0"/>
   <stop stop-color="#e9a71c" stop-opacity="0" offset="1"/>
  </linearGradient>
  <linearGradient id="p" x1="1246.7" x2="1209.5" y1="1319.9" y2="1316.8" gradientUnits="userSpaceOnUse" xlink:href="#f"/>
  <linearGradient id="o" x1="1188.5" x2="1204.1" y1="1317.8" y2="1316.5" gradientUnits="userSpaceOnUse" xlink:href="#f"/>
  <linearGradient id="n" x1="498.18" x2="504.52" y1="518.05" y2="422.34" gradientUnits="userSpaceOnUse" xlink:href="#g"/>
  <linearGradient id="m" x1="524.8" x2="517.2" y1="69.941" y2="159.94" gradientUnits="userSpaceOnUse" xlink:href="#a"/>
  <linearGradient id="d" x1="447.07" x2="468.94" y1="363.18" y2="415.02" gradientUnits="userSpaceOnUse" xlink:href="#a"/>
  <linearGradient id="l" x1="-289.62" x2="-295.64" y1="497.37" y2="541.11" gradientUnits="userSpaceOnUse" xlink:href="#a"/>
  <linearGradient id="k" x1="463.32" x2="457.3" y1="328.86" y2="372.59" gradientUnits="userSpaceOnUse" xlink:href="#a"/>
  <radialGradient id="j" cx="1209.7" cy="1380.5" r="58.263" gradientTransform="matrix(1.0232 .00601 -.00208 .37664 -24.846 825.02)" gradientUnits="userSpaceOnUse">
   <stop stop-color="#ececec" offset="0"/>
   <stop stop-color="#ececec" stop-opacity="0" offset="1"/>
  </radialGradient>
  <radialGradient id="c" cx="559.29" cy="467.44" r="112.82" gradientTransform="matrix(.64399 1.2691 -1.3034 .66139 827.1 -583.91)" gradientUnits="userSpaceOnUse" xlink:href="#g"/>
  <radialGradient id="b" cx="463.96" cy="402.79" r="25.4" gradientTransform="matrix(2.6674 .97165 -1.0502 2.883 -555.96 -1161.8)" gradientUnits="userSpaceOnUse" xlink:href="#a"/>
 </defs>
 <g transform="matrix(2.362 0 0 2.362 2454.9 -884.91)">
  <g transform="matrix(1.5627 0 .15556 1.5627 -3009.5 -1618.7)">
   <path transform="matrix(1 0 0 .97 0 40.956)" d="m1269.2 1342.8c0 12.376-26.085 22.409-58.263 22.409s-58.263-10.033-58.263-22.409 26.085-22.409 58.263-22.409 58.263 10.033 58.263 22.409z"/>
   <path d="m1183.2 1324.8 20.616-43.412s2.6891-5.7884 13.445-5.7884 17.927 0.9648 21.512 3.859 9.86 53.06 9.86 53.06-10.756-6.7531-34.062-6.7531-31.372-0.9647-31.372-0.9647z"/>
   <path d="m1183.2 1320.9 20.193-39.994s2.6338-5.3326 13.169-5.3326 17.559 0.8888 21.07 3.5551 9.8815 47.705 9.8815 47.705-10.759-5.0448-33.586-5.0448-30.728-0.8887-30.728-0.8887z" fill="url(#q)"/>
   <path d="m1184.3 1323.6 3.8095-8.7698s15.238-3.1563 25.994-3.1563 31.821 5.6896 31.821 5.6896l1.7927 9.1002s-15.91-4.4665-34.286-4.4665c-19.496 0-29.132 1.6028-29.132 1.6028z" fill="#fff"/>
   <path d="m1184.2 1323.6 3.8095-8.7698s9.1949-3.6865 26.443-3.1563c15.126 0.4649 32.045 5.7456 32.045 5.7456l1.4565 9.2123s-16.246-4.6346-34.622-4.6346c-19.496 0-29.132 1.6028-29.132 1.6028z" fill="url(#p)"/>
   <path d="m1183.8 1323.8 4.4258-9.274s20.124-3.3842 31.204-2.7641c16.748 0.9373 26.612 4.9687 25.994 5.4095l2.2409 9.1002s-15.462-4.6346-33.837-4.6346c-19.496 0-30.028 2.163-30.028 2.163z" fill="url(#o)"/>
   <path transform="matrix(1 0 0 .97 0 40.956)" d="m1269.2 1342.8c0 12.376-26.085 22.409-58.263 22.409s-58.263-10.033-58.263-22.409 26.085-22.409 58.263-22.409 58.263 10.033 58.263 22.409z" fill="url(#j)"/>
  </g>
  <g transform="translate(-659.72 -25.098)">
   <g transform="matrix(.76279 0 0 .61507 -630.79 292.57)" fill="url(#n)" filter="url(#r)" opacity=".33">
    <path transform="translate(-78.594 -111.55)" d="m690.86 537.7c0 62.309-50.511 112.82-112.82 112.82s-112.82-50.511-112.82-112.82 50.511-112.82 112.82-112.82 112.82 50.511 112.82 112.82z"/>
    <path transform="matrix(1 0 0 1.0056 -78.594 -114.57)" d="m690.86 537.7c0 62.309-50.511 112.82-112.82 112.82s-112.82-50.511-112.82-112.82 50.511-112.82 112.82-112.82 112.82 50.511 112.82 112.82z"/>
    <path transform="matrix(1 0 0 1.0056 -78.594 -114.57)" d="m690.86 537.7c0 62.309-50.511 112.82-112.82 112.82s-112.82-50.511-112.82-112.82 50.511-112.82 112.82-112.82 112.82 50.511 112.82 112.82z"/>
    <path transform="matrix(.87963 0 0 1 45.776 245.92)" d="m585.65 109.24c0 19.603-30.647 35.494-68.453 35.494s-68.453-15.891-68.453-35.494 30.647-35.494 68.453-35.494 68.453 15.891 68.453 35.494z"/>
    <path d="m494.47 315.89c-44.645 0.7251-86.723 31.117-101.28 73.156-13.418 36.456-5.8694 80.074 19.594 109.28 24.455 29.367 64.79 44.667 102.72 37.96 33.187-5.3866 63.539-26.592 79.332-56.172 16.366-29.631 18.325-67.009 4.3215-97.944-15.134-34.671-48.832-60.707-86.727-65.296-5.9478-0.83309-11.957-1.1546-17.961-0.98481zm3.3438 2.5312c45.748-0.91102 89.482 31.359 102.22 75.188 11.14 36.156 1.6679 78.096-24.969 105.03-24.665 25.855-62.898 38.153-98.057 30.666-38.223-7.6514-71.073-37.463-81.255-75.197-9.7458-33.907-1.5074-72.579 21.812-98.849 19.939-22.857 49.702-37.115 80.251-36.839z" filter="url(#i)" opacity=".22"/>
   </g>
   <g transform="translate(-752.94 168.52)">
    <path transform="translate(-78.594 -111.55)" d="m690.86 537.7c0 62.309-50.511 112.82-112.82 112.82s-112.82-50.511-112.82-112.82 50.511-112.82 112.82-112.82 112.82 50.511 112.82 112.82z" fill="#eaa81c"/>
    <path transform="matrix(1 0 0 1.0056 -78.594 -114.57)" d="m690.86 537.7c0 62.309-50.511 112.82-112.82 112.82s-112.82-50.511-112.82-112.82 50.511-112.82 112.82-112.82 112.82 50.511 112.82 112.82z" fill="url(#c)"/>
    <path transform="matrix(1 0 0 1.0056 -78.594 -114.57)" d="m690.86 537.7c0 62.309-50.511 112.82-112.82 112.82s-112.82-50.511-112.82-112.82 50.511-112.82 112.82-112.82 112.82 50.511 112.82 112.82z" fill="url(#c)"/>
    <path transform="matrix(.87963 0 0 1 45.776 245.92)" d="m585.65 109.24c0 19.603-30.647 35.494-68.453 35.494s-68.453-15.891-68.453-35.494 30.647-35.494 68.453-35.494 68.453 15.891 68.453 35.494z" fill="url(#m)"/>
    <path d="m494.47 315.89c-44.645 0.7251-86.723 31.117-101.28 73.156-13.418 36.456-5.8694 80.074 19.594 109.28 24.455 29.367 64.79 44.667 102.72 37.96 33.187-5.3866 63.539-26.592 79.332-56.172 16.366-29.631 18.325-67.009 4.3215-97.944-15.134-34.671-48.832-60.707-86.727-65.296-5.9478-0.83309-11.957-1.1546-17.961-0.98481zm3.3438 2.5312c45.748-0.91102 89.482 31.359 102.22 75.188 11.14 36.156 1.6679 78.096-24.969 105.03-24.665 25.855-62.898 38.153-98.057 30.666-38.223-7.6514-71.073-37.463-81.255-75.197-9.7458-33.907-1.5074-72.579 21.812-98.849 19.939-22.857 49.702-37.115 80.251-36.839z" fill="#2b1100" filter="url(#i)" opacity=".22"/>
   </g>
   <g transform="translate(-545.88 120.11)">
    <path transform="translate(-205.36 48.17)" d="m494.38 402.7c0 22.053-2.3795 34.443-26.304 34.226-22.026-0.19938-28.205-12.173-28.205-34.226s12.202-39.931 27.254-39.931 27.254 17.878 27.254 39.931z" fill="#e9a71c"/>
    <path d="m263.47 485.06c17.598-3.0026 24.718-15.6 24.95-30.517 0.68007-15.857-5.6995-35.697-23.929-40.416-15.41-0.96838-25.256 14.16-27.332 26.837-4.2895 18.045-0.67507 35.841 19.075 43.611 1.7817 0.40549 3.9006-2.5875 7.2354 0.48527z" fill="url(#e)"/>
    <path d="m268.5 483.24c16.963-2.9779 18.43-16.809 18.654-29.027 0.65554-15.727-5.4938-35.405-23.065-40.084-14.854-0.96044-24.344 14.044-26.346 26.617-4.1347 17.897 3.3299 42.388 17.297 42.33 1.7174 0.40216 11.385 0.0378 13.46 0.16438z" fill="#999"/>
    <path d="m266.99 483.08c16.567-0.20498 19.935-14.073 20.159-28.869 0.65554-15.727-5.4938-35.405-23.065-40.084-14.854-0.96044-24.344 14.044-26.346 26.617-4.1347 17.897 2.5376 42.072 17.772 42.172 1.7174 0.40216 9.8001 0.2755 11.48 0.16438z" fill="url(#b)"/>
    <path transform="matrix(1.1739 0 0 1 -291.06 50.706)" d="m485.51 400.16c0 10.151-6.5267 18.381-14.578 18.381s-14.578-8.2294-14.578-18.381 6.5267-18.381 14.578-18.381 14.578 8.2294 14.578 18.381z"/>
    <path transform="matrix(.47826 0 0 .62963 39.076 194.31)" d="m485.51 400.16c0 10.151-6.5267 18.381-14.578 18.381s-14.578-8.2294-14.578-18.381 6.5267-18.381 14.578-18.381 14.578 8.2294 14.578 18.381z" fill="url(#d)"/>
   </g>
   <g transform="translate(-478.65 120.11)">
    <path transform="translate(-205.36 48.17)" d="m494.38 402.7c0 22.053-2.3795 34.443-26.304 34.226-22.026-0.19938-28.205-12.173-28.205-34.226s12.202-39.931 27.254-39.931 27.254 17.878 27.254 39.931z" fill="#e9a71c"/>
    <path d="m263.47 485.06c17.598-3.0026 24.718-15.6 24.95-30.517 0.68007-15.857-5.6995-35.697-23.929-40.416-15.41-0.96838-25.256 14.16-27.332 26.837-4.2895 18.045-0.67507 35.841 19.075 43.611 1.7817 0.40549 3.9006-2.5875 7.2354 0.48527z" fill="url(#e)"/>
    <path d="m268.5 483.24c16.963-2.9779 18.43-16.809 18.654-29.027 0.65554-15.727-5.4938-35.405-23.065-40.084-14.854-0.96044-24.344 14.044-26.346 26.617-4.1347 17.897 3.3299 42.388 17.297 42.33 1.7174 0.40216 11.385 0.0378 13.46 0.16438z" fill="#999"/>
    <path d="m266.99 483.08c16.567-0.20498 19.935-14.073 20.159-28.869 0.65554-15.727-5.4938-35.405-23.065-40.084-14.854-0.96044-24.344 14.044-26.346 26.617-4.1347 17.897 2.5376 42.072 17.772 42.172 1.7174 0.40216 9.8001 0.2755 11.48 0.16438z" fill="url(#b)"/>
    <path transform="matrix(1.1739 0 0 1 -291.06 50.706)" d="m485.51 400.16c0 10.151-6.5267 18.381-14.578 18.381s-14.578-8.2294-14.578-18.381 6.5267-18.381 14.578-18.381 14.578 8.2294 14.578 18.381z"/>
    <path transform="matrix(.47826 0 0 .62963 39.076 194.31)" d="m485.51 400.16c0 10.151-6.5267 18.381-14.578 18.381s-14.578-8.2294-14.578-18.381 6.5267-18.381 14.578-18.381 14.578 8.2294 14.578 18.381z" fill="url(#d)"/>
   </g>
   <path transform="matrix(.77916 0 0 1.0033 -640.43 161.78)" d="m566.64 482.56c0 19.253-30.08 34.86-67.185 34.86s-67.185-15.607-67.185-34.86" fill="none" stroke="#000" stroke-width="3.393"/>
   <path transform="matrix(.77999 0 0 .92937 -640.84 197.41)" d="m566.64 482.56c0 19.253-30.08 34.86-67.185 34.86s-67.185-15.607-67.185-34.86" fill="none" stroke="#000" stroke-width="3.393"/>
   <path transform="matrix(.78071 0 0 .86784 -641.19 227.06)" d="m566.64 482.56c0 19.253-30.08 34.86-67.185 34.86s-67.185-15.607-67.185-34.86" fill="none" stroke="#000" stroke-width="3.393"/>
   <path d="m-313.78 534.09c1.5846-10.141 16.841-16.992 27.751-16.992s14.706 3.1522 14.547 5.2121c0 0-0.39124 6.3107-6.0613 2.7294-3.8596-2.4378-14.095-3.5908-24.245 3.6098-5.6813 4.0306-4.2429 7.9415-7.2735 7.9415s-4.4014-0.91603-4.7183-2.5006z" stroke="#000" stroke-width=".52184"/>
   <path d="m-286.66 518.09c-9.6741 0.553-21.032 4.29-24.688 14.094 2.3987 1.5748 2.9776-2.4698 4.2188-3.5938 7.2654-9.0591 21.313-12.133 31.75-6.8438 2.0932 0.32042 0.1104-2.6834-1.1875-2.4688-3.2327-0.68353-6.6947-1.4631-10.094-1.1875z" fill="url(#l)" filter="url(#h)"/>
   <path d="m-188.45 534.72c-1.5846-10.141-16.841-16.992-27.751-16.992s-14.706 3.1522-14.547 5.2121c0 0 0.39124 6.3107 6.0613 2.7294 3.8596-2.4378 14.095-3.5908 24.245 3.6098 5.6813 4.0306 4.2429 7.9415 7.2735 7.9415s4.4014-0.91603 4.7183-2.5006z" stroke="#000" stroke-width=".52184"/>
   <path transform="matrix(-1 0 0 1 250.71 169.15)" d="m466.28 349.57c-9.6741 0.553-21.032 4.29-24.688 14.094 2.3987 1.5748 2.9776-2.4698 4.2188-3.5938 7.2654-9.0591 21.313-12.133 31.75-6.8438 2.0932 0.32042 0.1104-2.6834-1.1875-2.4688-3.2327-0.68353-6.6947-1.4631-10.094-1.1875z" fill="url(#k)" filter="url(#h)"/>
  </g>
  <path d="m-970.7 471.15s24.047-6.8011 45.001-6.972c14.245-0.11619 42.821 3.0835 61.481 7.9228 7.062 1.8315 10.55 2.1104 16.567 5.2136 11.502 5.9314 16.203 14.335 17.82 14.258 4.0795-0.19261 7.4003-8.5908 7.4003-8.5908l-21.836-9.4148-38.016-18.579s-43.417-0.95073-44.684-1.2676-33.276 4.7537-33.276 4.7537z" stroke="#000"/>
 </g>
</svg>
